<?xml version="1.0" standalone="no"?>
<!DOCTYPE svg PUBLIC "-//W3C//DTD SVG 20010904//EN"
 "http://www.w3.org/TR/2001/REC-SVG-20010904/DTD/svg10.dtd">
<svg version="1.0" xmlns="http://www.w3.org/2000/svg"
 width="512.000000pt" height="512.000000pt" viewBox="0 0 512.000000 512.000000"
 preserveAspectRatio="xMidYMid meet">
<metadata>
Created by potrace 1.11, written by Peter Selinger 2001-2013
</metadata>
<g transform="translate(0.000000,512.000000) scale(0.100000,-0.100000)"
fill="#000000" stroke="none">
<path d="M2387 5104 c-3 -3 -35 -7 -73 -9 -38 -2 -86 -7 -109 -10 -22 -4 -51
-8 -65 -11 -324 -50 -683 -187 -958 -366 -15 -10 -34 -21 -42 -25 -8 -4 -60
-41 -116 -83 -281 -213 -500 -459 -677 -762 -57 -97 -141 -268 -131 -268 3 0
-2 -7 -10 -16 -9 -8 -17 -22 -17 -30 -2 -22 -4 -28 -16 -49 -12 -24 -68 -193
-82 -250 -5 -22 -17 -69 -26 -104 -8 -36 -13 -71 -11 -78 3 -7 1 -13 -3 -13
-5 0 -12 -28 -16 -62 -4 -35 -9 -72 -11 -83 -2 -11 -7 -51 -10 -90 -3 -38 -7
-82 -9 -97 -2 -17 2 -28 8 -28 8 0 8 -3 -1 -8 -16 -11 -8 -308 13 -443 70
-461 228 -842 500 -1204 120 -160 403 -442 440 -439 8 1 12 -4 10 -10 -5 -13
151 -122 168 -118 7 2 9 0 4 -4 -16 -17 297 -187 458 -249 139 -54 264 -94
335 -110 234 -50 364 -66 565 -70 169 -3 349 9 450 30 11 3 38 7 60 10 22 3
92 19 155 35 614 156 1137 523 1494 1048 31 46 56 87 56 93 0 5 5 9 10 9 6 0
10 8 10 19 0 10 7 24 15 31 19 16 127 237 169 348 71 186 115 353 149 569 9
53 10 88 4 99 -6 11 -6 15 1 10 7 -4 12 18 15 61 5 76 0 376 -8 438 -19 166
-31 230 -74 400 -87 338 -262 679 -494 964 -105 128 -377 392 -377 365 0 -5
-7 1 -15 13 -8 11 -38 37 -67 57 -29 19 -73 50 -97 67 -92 64 -400 229 -429
229 -5 0 -26 8 -48 19 -106 51 -435 139 -544 146 -30 2 -62 6 -70 9 -42 15
-470 33 -483 20z"/>
</g>
</svg>
